<svg xmlns="http://www.w3.org/2000/svg" width="615" height="266" viewBox="0 0 615 266" role="img" aria-label="TyPhed - Engineering Tomorrow">
  <defs><linearGradient id="g-tmr" gradientUnits="userSpaceOnUse" x1="446.96" y1="0" x2="586.75" y2="0"><stop offset="0" stop-color="#20D3EE"/><stop offset="1" stop-color="#806EF7"/></linearGradient><linearGradient id="tg0" gradientUnits="userSpaceOnUse" x1="1238.4" y1="8149.5" x2="487.1" y2="8135.7"><stop offset="0.00" stop-color="#5A73D4"/><stop offset="0.20" stop-color="#637EE8"/><stop offset="0.40" stop-color="#6480EC"/><stop offset="0.60" stop-color="#6783EF"/><stop offset="0.80" stop-color="#6885F4"/><stop offset="1.00" stop-color="#6582ED"/></linearGradient><linearGradient id="tg1" gradientUnits="userSpaceOnUse" x1="761.1" y1="7609.7" x2="923.4" y2="7395.4"><stop offset="0.00" stop-color="#3D87E0"/><stop offset="0.20" stop-color="#408DE9"/><stop offset="0.40" stop-color="#418EEA"/><stop offset="0.60" stop-color="#418FEC"/><stop offset="0.80" stop-color="#3F8AE5"/><stop offset="1.00" stop-color="#3F8BE6"/></linearGradient><linearGradient id="tg2" gradientUnits="userSpaceOnUse" x1="6524.1" y1="2194.3" x2="3660.2" y2="7549.6"><stop offset="0.00" stop-color="#2B72DE"/><stop offset="0.20" stop-color="#258BE5"/><stop offset="0.40" stop-color="#1BA8EB"/><stop offset="0.60" stop-color="#18BDEB"/><stop offset="0.80" stop-color="#19CAE9"/><stop offset="1.00" stop-color="#20CFE8"/></linearGradient><linearGradient id="tg3" gradientUnits="userSpaceOnUse" x1="652.8" y1="6576.3" x2="519.2" y2="6728.2"><stop offset="0.00" stop-color="#1CB6D0"/><stop offset="0.20" stop-color="#1FD1EC"/><stop offset="0.40" stop-color="#20D5F0"/><stop offset="0.60" stop-color="#20D4EF"/><stop offset="0.80" stop-color="#1FCFEA"/><stop offset="1.00" stop-color="#1EC2DC"/></linearGradient><linearGradient id="tg4" gradientUnits="userSpaceOnUse" x1="4649.1" y1="510.2" x2="3454.8" y2="4053.0"><stop offset="0.00" stop-color="#2D6FE0"/><stop offset="0.20" stop-color="#2B78DE"/><stop offset="0.40" stop-color="#2688E5"/><stop offset="0.60" stop-color="#1D9DEC"/><stop offset="0.80" stop-color="#1AADEA"/><stop offset="1.00" stop-color="#19B7E0"/></linearGradient><linearGradient id="tg5" gradientUnits="userSpaceOnUse" x1="4804.1" y1="585.3" x2="1284.4" y2="1713.2"><stop offset="0.00" stop-color="#2F6FE0"/><stop offset="0.20" stop-color="#2875E0"/><stop offset="0.40" stop-color="#238DE6"/><stop offset="0.60" stop-color="#1AA5EC"/><stop offset="0.80" stop-color="#12B4EA"/><stop offset="1.00" stop-color="#1AAED1"/></linearGradient></defs>
  <g transform="translate(28.00,28.00) scale(0.238636)"><g transform="translate(0.000000,880.000000) scale(0.100000,-0.100000)" stroke="none"><path fill="url(#tg0)" d="M1311 8620 c-13 -11 -29 -20 -36 -20 -7 0 -19 -7 -26 -16 -7 -9 -22
-20 -34 -26 -29 -13 -86 -48 -138 -85 -25 -17 -55 -34 -66 -38 -12 -3 -21 -10
-21 -15 0 -5 -10 -12 -22 -16 -13 -3 -31 -13 -41 -22 -21 -18 -50 -36 -96 -58
-43 -20 -86 -12 -117 21 -27 29 -37 31 -58 10 -30 -31 -125 -181 -132 -210 -4
-16 -14 -43 -22 -60 -8 -16 -19 -43 -23 -60 -4 -16 -13 -43 -19 -60 -20 -50 1
-104 53 -137 55 -35 93 -35 137 -3 40 30 50 46 90 155 16 44 47 107 68 139 36
55 185 202 242 239 14 9 29 22 33 29 4 7 13 13 18 13 13 0 107 74 185 145 30
27 61 53 69 58 21 11 19 37 -2 37 -10 -1 -29 -10 -42 -20z"/><path fill="url(#tg1)" d="M1206 7999 c-15 -12 -47 -52 -72 -89 -41 -63 -77 -100 -168 -173 -19
-15 -95 -63 -168 -107 -157 -93 -250 -164 -304 -232 -21 -28 -51 -62 -66 -76
-16 -15 -28 -34 -28 -43 0 -9 -8 -27 -19 -40 -10 -13 -22 -35 -26 -49 -4 -14
-14 -34 -21 -45 -20 -28 -17 -73 7 -112 24 -38 53 -53 103 -53 48 0 70 23 135
145 72 134 94 154 341 308 268 168 413 311 453 445 14 49 14 52 -9 85 -38 56
-111 73 -158 36z"/><path fill="url(#tg2)" d="M3810 7485 c-58 -13 -169 -31 -247 -39 -110 -12 -153 -21 -190 -40
-27 -13 -88 -31 -138 -41 -51 -9 -112 -29 -144 -46 -31 -16 -82 -34 -113 -40
-31 -5 -73 -21 -93 -34 -19 -14 -63 -32 -96 -40 -34 -9 -78 -29 -98 -44 -20
-15 -56 -34 -81 -40 -25 -7 -56 -24 -70 -37 -14 -13 -45 -30 -69 -38 -23 -9
-56 -27 -72 -41 -17 -13 -49 -33 -72 -43 -23 -11 -51 -29 -61 -41 -11 -12 -40
-31 -65 -42 -25 -11 -57 -31 -71 -43 -14 -13 -40 -31 -58 -40 -18 -10 -36 -24
-39 -32 -3 -8 -20 -22 -37 -31 -17 -8 -49 -32 -71 -52 -23 -20 -65 -56 -94
-81 -30 -25 -73 -63 -96 -85 -23 -22 -51 -47 -61 -56 -25 -21 -156 -166 -185
-204 -28 -37 -100 -120 -138 -160 -16 -16 -35 -41 -42 -55 -6 -14 -21 -31 -31
-38 -10 -7 -28 -32 -39 -55 -12 -23 -32 -53 -45 -67 -12 -14 -30 -41 -38 -60
-8 -19 -28 -47 -45 -63 -16 -15 -32 -41 -36 -57 -4 -17 -18 -44 -32 -60 -14
-17 -34 -53 -44 -81 -11 -28 -31 -66 -44 -84 -14 -17 -31 -53 -39 -79 -8 -27
-26 -65 -41 -86 -14 -21 -32 -61 -40 -90 -8 -29 -25 -69 -40 -89 -14 -21 -31
-66 -39 -102 -7 -35 -25 -87 -38 -114 -25 -49 -40 -107 -53 -210 -4 -27 -18
-68 -31 -91 -14 -23 -27 -64 -31 -92 -7 -62 4 -154 21 -178 12 -16 14 -16 30
8 9 14 21 64 27 114 9 79 13 92 41 121 24 25 34 48 45 104 8 47 22 84 39 106
14 19 32 58 38 87 7 29 24 68 38 87 14 19 33 57 43 84 9 28 25 59 35 70 22 25
50 79 50 98 0 7 12 24 26 38 15 13 35 44 45 68 11 24 33 59 48 77 16 18 32 43
36 56 4 13 22 37 39 53 17 17 39 44 48 60 17 28 40 59 121 160 18 21 70 78
117 126 47 47 92 95 101 105 49 57 249 230 303 262 16 9 47 34 67 55 21 20 44
37 52 37 7 0 24 12 38 26 13 15 47 37 74 49 28 13 57 31 65 40 8 9 42 30 75
46 34 16 70 38 80 49 10 11 24 20 32 20 20 0 87 36 102 54 8 9 39 23 70 32 31
9 70 27 87 40 17 12 61 30 97 38 37 9 90 29 119 45 29 16 76 32 103 36 28 4
84 22 125 40 46 20 100 36 140 40 102 10 180 25 250 46 55 18 109 22 350 29
354 11 546 0 629 -35 36 -15 96 -28 161 -35 132 -14 146 -17 195 -45 22 -13
73 -29 113 -38 41 -8 88 -25 110 -40 20 -14 63 -33 94 -41 32 -8 73 -26 92
-41 18 -14 56 -32 83 -40 28 -8 57 -22 64 -32 8 -9 41 -28 74 -43 33 -15 67
-35 75 -45 8 -10 34 -26 58 -36 25 -11 56 -32 71 -47 15 -15 40 -35 56 -44 17
-10 50 -34 75 -53 25 -20 67 -52 93 -73 52 -40 112 -92 152 -132 14 -14 32
-31 39 -39 44 -43 69 -70 95 -101 17 -19 48 -55 69 -80 21 -25 53 -66 71 -92
17 -27 36 -48 40 -48 4 0 16 -18 26 -41 11 -23 29 -48 41 -56 13 -8 30 -36 39
-63 9 -27 27 -59 40 -72 13 -13 33 -48 44 -77 11 -30 29 -64 41 -76 11 -12 28
-51 38 -86 10 -35 30 -81 44 -101 18 -26 29 -62 38 -120 6 -46 23 -110 36
-143 35 -87 47 -230 42 -502 -5 -227 -6 -233 -32 -282 -14 -28 -35 -87 -45
-132 -13 -54 -27 -90 -44 -107 -13 -15 -32 -51 -42 -79 -9 -29 -25 -59 -34
-65 -10 -7 -26 -29 -36 -48 -37 -72 -199 -244 -260 -277 -16 -9 -47 -31 -68
-49 -20 -19 -43 -34 -50 -34 -8 0 -34 -16 -59 -35 -24 -19 -66 -41 -92 -49
-26 -8 -64 -26 -84 -40 -25 -17 -61 -29 -112 -36 -41 -6 -110 -22 -153 -36
-60 -18 -120 -27 -255 -36 -212 -14 -380 -1 -490 37 -38 13 -112 29 -163 35
-65 8 -113 20 -154 40 -33 16 -86 33 -117 40 -31 6 -76 24 -100 40 -24 16 -67
34 -96 40 -29 6 -66 23 -82 37 -17 14 -57 33 -90 43 -33 10 -74 30 -90 44 -17
14 -49 30 -72 37 -23 6 -57 23 -77 39 -20 15 -54 33 -76 40 -22 7 -53 25 -70
40 -16 15 -48 33 -70 40 -22 7 -53 25 -70 40 -16 16 -47 35 -67 44 -21 8 -55
28 -75 44 -21 16 -51 33 -67 36 -15 4 -45 20 -65 35 -20 16 -54 34 -76 41 -22
7 -51 23 -65 36 -14 13 -52 33 -85 44 -33 11 -71 31 -85 44 -14 13 -49 31 -77
40 -29 8 -68 26 -86 40 -18 14 -60 32 -94 39 -33 8 -81 27 -106 41 -32 19 -75
32 -140 41 -51 8 -118 26 -148 39 -67 31 -220 46 -459 46 -235 -1 -333 -12
-416 -48 -38 -16 -94 -35 -123 -41 -30 -7 -70 -23 -88 -37 -18 -14 -57 -32
-86 -40 -28 -9 -65 -28 -82 -43 -16 -15 -44 -33 -62 -40 -17 -7 -40 -22 -50
-33 -10 -11 -36 -29 -58 -40 -22 -12 -60 -38 -84 -59 -24 -22 -47 -39 -51 -39
-4 0 -13 -11 -20 -25 -7 -14 -28 -34 -46 -44 -20 -12 -34 -30 -38 -48 -4 -17
-19 -35 -37 -45 -38 -22 -36 -52 4 -56 21 -3 29 2 38 22 9 18 24 28 61 37 28
6 65 25 83 41 18 16 57 36 87 44 29 9 70 27 90 41 25 17 68 31 135 43 54 9
142 29 197 44 89 23 116 26 275 26 163 0 181 -2 246 -26 39 -13 116 -33 172
-44 68 -13 115 -28 140 -44 21 -14 66 -32 101 -40 35 -8 75 -25 92 -40 27 -22
86 -46 116 -46 5 0 23 -13 38 -29 15 -15 44 -33 66 -40 21 -6 57 -27 80 -46
23 -19 49 -35 57 -35 8 0 28 -14 45 -30 16 -17 43 -37 58 -45 16 -8 49 -33 75
-55 25 -22 50 -40 55 -40 5 0 27 -17 49 -37 53 -51 104 -89 236 -180 51 -35
118 -89 158 -126 17 -16 48 -40 69 -53 21 -13 38 -29 38 -34 0 -5 13 -16 30
-25 16 -8 52 -36 80 -60 28 -25 55 -45 60 -45 5 0 27 -17 49 -37 65 -61 128
-113 136 -113 4 0 23 -14 43 -31 20 -18 55 -40 79 -51 23 -10 48 -27 55 -37 7
-10 33 -28 58 -41 25 -12 54 -31 65 -41 11 -10 41 -27 65 -38 25 -11 56 -31
69 -45 13 -14 40 -31 60 -37 20 -6 50 -24 66 -39 17 -15 50 -35 74 -44 25 -10
58 -28 73 -42 16 -13 53 -31 83 -39 29 -9 65 -25 80 -37 14 -11 60 -29 102
-40 41 -10 87 -28 102 -38 14 -11 62 -27 106 -36 44 -8 107 -29 140 -44 39
-19 90 -33 145 -39 87 -11 224 -34 317 -52 28 -6 146 -10 260 -11 198 0 213 1
283 25 45 15 122 30 190 37 88 9 130 19 178 40 34 16 90 34 123 41 36 7 73 22
89 36 16 13 54 32 85 42 31 10 64 29 72 41 8 12 34 30 57 40 24 10 56 30 72
45 16 15 42 34 59 42 16 9 38 26 48 40 10 13 31 30 46 37 15 8 32 25 39 38 7
13 26 31 42 40 17 9 35 28 41 41 6 14 22 31 36 38 14 7 33 30 43 50 11 20 26
39 34 42 8 3 26 28 40 54 13 26 36 59 50 72 14 13 31 40 37 60 6 20 22 47 35
61 13 14 32 51 43 82 10 30 30 73 44 94 14 22 31 68 38 104 7 36 24 97 39 135
24 61 30 100 46 298 17 215 17 244 2 530 -15 285 -18 307 -46 392 -16 50 -35
132 -41 184 -8 65 -20 110 -40 150 -16 31 -34 89 -41 128 -7 44 -21 87 -36
108 -13 20 -31 66 -40 103 -9 37 -27 81 -40 98 -12 17 -30 56 -39 87 -9 30
-29 71 -44 91 -16 19 -34 55 -41 80 -7 24 -23 55 -36 67 -13 12 -31 44 -40 71
-9 27 -26 55 -39 64 -12 8 -30 34 -39 58 -9 24 -28 54 -42 67 -14 13 -32 38
-39 56 -7 17 -26 42 -40 55 -15 13 -34 37 -42 53 -9 17 -30 46 -47 66 -17 20
-49 60 -71 89 -22 29 -58 72 -80 95 -22 24 -49 54 -61 67 -11 13 -29 30 -40
39 -10 10 -28 28 -40 40 -64 72 -269 251 -312 273 -15 8 -36 24 -47 36 -11 12
-37 31 -57 41 -21 11 -45 30 -54 43 -8 14 -29 29 -46 35 -17 6 -49 26 -72 44
-23 18 -55 39 -73 46 -18 7 -39 24 -47 37 -10 14 -36 29 -68 39 -29 8 -64 27
-79 41 -14 14 -50 31 -79 39 -29 8 -62 23 -74 33 -28 26 -52 37 -110 51 -27 7
-62 23 -77 36 -17 13 -59 30 -99 39 -39 9 -88 27 -108 41 -24 15 -70 29 -131
40 -51 9 -123 27 -159 41 -40 15 -106 29 -167 35 -117 11 -190 24 -300 50 -70
16 -117 19 -375 18 -272 -1 -303 -3 -400 -24z"/><path fill="url(#tg3)" d="M914 7053 c-17 -8 -39 -29 -49 -47 -23 -39 -136 -147 -192 -184 -22
-15 -71 -45 -107 -67 -166 -100 -214 -136 -266 -196 -98 -113 -140 -191 -140
-261 0 -41 4 -49 32 -69 47 -34 95 -29 130 13 16 18 38 52 49 75 35 70 150
178 265 248 27 16 77 46 112 67 90 53 189 138 250 214 42 52 52 73 52 102 0
61 -10 82 -51 102 -45 23 -45 23 -85 3z"/><path fill="url(#tg4)" d="M1369 3430 c-25 -4 -64 -17 -86 -29 -22 -11 -72 -27 -111 -36 -38 -9
-84 -27 -102 -40 -18 -14 -54 -31 -80 -40 -26 -9 -60 -29 -75 -45 -16 -17 -34
-30 -41 -30 -7 0 -33 -20 -58 -45 -26 -25 -51 -45 -55 -45 -5 0 -14 -13 -20
-29 -7 -15 -25 -38 -42 -50 -16 -12 -29 -30 -29 -41 0 -37 73 -37 85 0 4 13
25 24 63 35 31 9 74 28 95 41 74 48 495 103 570 75 13 -5 86 -17 163 -26 115
-14 148 -22 190 -46 28 -16 74 -33 102 -39 28 -7 67 -24 87 -40 20 -16 58 -36
84 -45 27 -9 57 -25 67 -37 11 -11 37 -29 60 -39 22 -10 49 -28 60 -40 10 -11
37 -30 59 -41 22 -12 56 -34 75 -50 59 -49 137 -111 191 -153 92 -72 173 -148
304 -285 71 -74 134 -141 139 -148 9 -9 288 -275 561 -534 72 -68 109 -100
129 -110 12 -6 34 -26 49 -44 16 -19 34 -34 41 -34 7 0 25 -14 42 -31 16 -17
45 -37 64 -45 19 -8 49 -28 65 -44 17 -15 47 -35 67 -43 20 -9 41 -24 47 -34
5 -11 29 -28 53 -38 24 -10 57 -31 73 -46 17 -16 50 -35 75 -44 24 -9 54 -25
67 -37 12 -11 50 -28 85 -38 35 -10 80 -29 100 -42 20 -14 65 -31 100 -37 35
-7 79 -24 99 -37 26 -18 65 -30 130 -40 52 -8 126 -26 164 -40 156 -58 700
-59 855 -3 30 11 93 27 140 35 47 8 99 24 115 34 45 29 66 38 112 50 24 6 55
22 70 36 16 15 51 37 80 49 28 13 56 32 62 44 7 11 24 27 38 35 34 17 71 51
231 206 71 69 135 136 142 150 7 13 24 33 37 43 13 11 33 36 43 58 11 21 25
39 30 39 5 0 22 24 36 53 15 28 42 69 60 90 19 20 34 43 34 50 0 8 15 30 34
49 19 19 39 52 45 73 6 21 24 51 41 67 26 23 31 34 28 65 -4 51 -23 52 -78 3
-25 -23 -64 -54 -87 -71 -24 -16 -48 -39 -54 -50 -6 -11 -23 -25 -39 -31 -16
-5 -40 -25 -54 -43 -14 -18 -39 -36 -55 -40 -16 -3 -46 -21 -68 -39 -21 -19
-55 -38 -75 -44 -20 -6 -52 -21 -70 -35 -18 -14 -59 -32 -91 -40 -33 -9 -76
-27 -97 -41 -20 -13 -66 -30 -101 -36 -35 -7 -87 -25 -116 -41 -40 -22 -79
-32 -170 -44 -65 -9 -154 -21 -198 -27 -156 -21 -322 -21 -451 1 -65 11 -162
23 -214 26 -129 9 -207 23 -252 46 -21 11 -75 26 -121 35 -50 9 -96 25 -118
40 -19 13 -66 33 -103 43 -37 10 -78 28 -90 40 -13 12 -53 31 -88 42 -36 10
-73 28 -83 39 -9 10 -40 27 -69 36 -28 9 -62 27 -76 39 -14 13 -50 34 -80 48
-30 13 -61 32 -69 41 -8 9 -31 24 -50 32 -20 8 -49 28 -66 43 -16 16 -48 38
-70 49 -22 11 -51 32 -64 46 -14 14 -30 26 -37 26 -7 0 -25 14 -41 31 -15 17
-45 39 -65 50 -21 11 -38 24 -38 29 0 6 -24 26 -52 45 -59 40 -123 89 -183
141 -22 19 -56 48 -75 64 -19 17 -58 50 -87 73 -28 23 -71 58 -95 78 -24 20
-62 48 -85 63 -24 14 -43 31 -43 36 0 5 -12 16 -27 24 -26 13 -75 54 -148 125
-16 15 -41 34 -55 41 -14 7 -43 28 -65 45 -22 18 -50 35 -61 39 -12 4 -38 22
-57 41 -20 19 -42 35 -50 35 -8 0 -39 16 -68 37 -29 20 -73 42 -96 49 -24 7
-58 24 -76 38 -17 13 -59 31 -91 40 -33 8 -73 25 -88 36 -16 11 -59 28 -96 36
-37 9 -96 26 -132 39 -36 14 -85 29 -110 34 -52 12 -433 12 -501 1z"/><path fill="url(#tg5)" d="M1237 2550 c-45 -8 -66 -25 -50 -41 8 -8 161 -39 193 -39 3 0 30 -16
59 -35 30 -18 66 -37 81 -40 15 -3 38 -17 51 -31 13 -14 42 -35 64 -46 49 -25
95 -63 180 -148 137 -137 246 -265 293 -344 9 -16 31 -45 48 -65 17 -20 36
-52 43 -72 6 -20 21 -45 33 -55 11 -11 31 -42 44 -70 12 -28 30 -54 38 -57 9
-4 27 -30 40 -59 13 -29 33 -62 46 -73 12 -11 31 -37 41 -57 11 -21 28 -42 39
-48 11 -6 26 -25 34 -43 7 -18 30 -52 50 -76 20 -24 41 -52 46 -62 5 -9 22
-31 37 -47 16 -17 48 -53 73 -82 25 -28 54 -59 64 -68 24 -22 46 -44 68 -68 9
-10 40 -39 69 -64 28 -25 66 -60 83 -77 18 -18 37 -33 42 -33 5 0 32 -18 59
-41 27 -22 66 -49 86 -59 20 -11 39 -26 42 -35 4 -8 30 -25 59 -38 29 -13 59
-31 66 -40 8 -9 37 -23 65 -33 29 -9 75 -29 102 -44 28 -16 79 -34 115 -40 36
-7 88 -22 115 -35 60 -28 73 -31 245 -51 74 -9 160 -20 190 -24 87 -13 206
-11 310 5 52 8 161 21 241 29 124 12 154 18 190 39 30 17 73 30 133 38 75 11
94 17 127 45 28 23 54 35 87 39 76 9 107 20 107 35 0 27 -69 33 -171 16 -119
-20 -208 -20 -327 -1 -51 8 -145 19 -209 24 -85 7 -131 16 -175 35 -33 13 -99
32 -148 40 -57 10 -102 24 -126 40 -21 14 -59 31 -86 37 -57 14 -95 32 -112
53 -7 8 -36 22 -64 32 -29 9 -64 27 -78 41 -14 13 -50 33 -79 44 -30 11 -69
34 -87 50 -19 16 -40 29 -48 29 -8 0 -29 13 -47 29 -18 15 -56 40 -84 54 -28
14 -54 33 -57 41 -3 8 -21 22 -39 32 -18 9 -46 30 -63 46 -16 16 -120 109
-230 206 -189 166 -237 213 -346 335 -169 190 -338 361 -429 435 -25 20 -85
72 -135 114 -149 128 -161 137 -201 154 -22 9 -50 27 -64 40 -14 13 -45 30
-69 39 -25 8 -59 27 -77 40 -18 14 -63 32 -101 40 -37 9 -84 24 -103 34 -19
11 -62 24 -94 30 -66 12 -240 13 -299 1z"/></g></g>
  <g>
    <path fill="#F8FAFC" transform="translate(264.91,127.47) scale(0.090000,-0.090000)" d="M262 0V642H28V700H560V642H326V0Z"/>
    <path fill="#F8FAFC" transform="translate(310.72,127.47) scale(0.090000,-0.090000)" d="M149 -200V-146H433Q463 -146 463 -116V84H451Q439 60 417.5 38.5Q396 17 361.5 3.5Q327 -10 275 -10Q223 -10 178.5 12.0Q134 34 107.5 78.0Q81 122 81 189V486H141V193Q141 114 181.0 79.0Q221 44 288 44Q363 44 413.0 93.0Q463 142 463 242V486H523V-124Q523 -160 503.5 -180.0Q484 -200 445 -200Z"/>
    <path fill="#20D3EE" transform="translate(365.71,127.47) scale(0.090000,-0.090000)" d="M86 0V700H345Q407 700 456.5 676.5Q506 653 535.0 609.0Q564 565 564 502V490Q564 427 534.5 382.5Q505 338 455.5 315.0Q406 292 345 292H150V0ZM150 350H338Q413 350 456.5 387.0Q500 424 500 491V501Q500 569 457.5 605.5Q415 642 338 642H150Z"/>
    <path fill="#20D3EE" transform="translate(419.71,127.47) scale(0.090000,-0.090000)" d="M88 0V700H148V401H160Q172 425 193.5 446.5Q215 468 249.5 481.5Q284 495 336 495Q389 495 433.0 473.0Q477 451 503.5 407.0Q530 363 530 296V0H470V292Q470 372 430.0 406.5Q390 441 323 441Q248 441 198.0 392.0Q148 343 148 243V0Z"/>
    <path fill="#20D3EE" transform="translate(474.79,127.47) scale(0.090000,-0.090000)" d="M312 -14Q237 -14 181.5 17.5Q126 49 95.0 106.0Q64 163 64 237V249Q64 324 95.0 380.5Q126 437 180.5 468.5Q235 500 305 500Q373 500 425.5 471.5Q478 443 508.0 389.5Q538 336 538 262V230H124Q127 139 179.5 89.5Q232 40 312 40Q380 40 417.5 71.0Q455 102 475 147L529 123Q514 90 487.5 58.5Q461 27 419.0 6.5Q377 -14 312 -14ZM125 282H477Q473 361 426.0 403.5Q379 446 305 446Q232 446 184.0 403.5Q136 361 125 282Z"/>
    <path fill="#20D3EE" transform="translate(528.61,127.47) scale(0.090000,-0.090000)" d="M298 -14Q233 -14 180.0 16.5Q127 47 95.5 103.5Q64 160 64 237V249Q64 326 95.0 382.5Q126 439 179.5 469.5Q233 500 298 500Q352 500 389.0 485.5Q426 471 449.5 448.5Q473 426 486 401H498V700H558V0H500V89H488Q467 49 422.5 17.5Q378 -14 298 -14ZM312 40Q395 40 446.5 93.0Q498 146 498 239V247Q498 340 446.5 393.0Q395 446 312 446Q230 446 178.0 393.0Q126 340 126 247V239Q126 146 178.0 93.0Q230 40 312 40Z"/>
  </g>
  <rect x="264.91" y="162.75" width="321.84" height="2" rx="1" fill="#222B44"/>
  <g>
    <path fill="#E1E7EF" transform="translate(264.91,193.65) scale(0.027000,-0.027000)" d="M86 0V700H509V642H150V380H481V322H150V58H513V0Z"/>
    <path fill="#E1E7EF" transform="translate(281.97,193.65) scale(0.027000,-0.027000)" d="M88 0V486H146V396H158Q176 435 217.0 465.5Q258 496 336 496Q389 496 433.0 474.0Q477 452 503.5 407.5Q530 363 530 296V0H470V292Q470 372 430.0 407.0Q390 442 323 442Q248 442 198.0 392.5Q148 343 148 243V0Z"/>
    <path fill="#E1E7EF" transform="translate(300.25,193.65) scale(0.027000,-0.027000)" d="M64 241V253Q64 330 95.5 385.0Q127 440 180.0 470.0Q233 500 298 500Q378 500 422.5 468.5Q467 437 488 397H500V486H556V-124Q556 -160 537.0 -180.0Q518 -200 479 -200H147V-146H467Q498 -146 498 -116V93H486Q473 69 449.5 46.0Q426 23 389.0 8.5Q352 -6 298 -6Q233 -6 179.5 24.0Q126 54 95.0 109.5Q64 165 64 241ZM312 48Q395 48 446.5 100.0Q498 152 498 243V251Q498 343 446.5 394.5Q395 446 312 446Q230 446 178.0 394.5Q126 343 126 251V243Q126 152 178.0 100.0Q230 48 312 48Z"/>
    <path fill="#E1E7EF" transform="translate(319.40,193.65) scale(0.027000,-0.027000)" d="M88 0V486H148V0ZM118 570Q96 570 81.0 585.0Q66 600 66 622Q66 645 81.0 659.5Q96 674 118 674Q141 674 155.5 659.5Q170 645 170 622Q170 600 155.5 585.0Q141 570 118 570Z"/>
    <path fill="#E1E7EF" transform="translate(327.53,193.65) scale(0.027000,-0.027000)" d="M88 0V486H146V396H158Q176 435 217.0 465.5Q258 496 336 496Q389 496 433.0 474.0Q477 452 503.5 407.5Q530 363 530 296V0H470V292Q470 372 430.0 407.0Q390 442 323 442Q248 442 198.0 392.5Q148 343 148 243V0Z"/>
    <path fill="#E1E7EF" transform="translate(345.81,193.65) scale(0.027000,-0.027000)" d="M312 -14Q237 -14 181.5 17.5Q126 49 95.0 106.0Q64 163 64 237V249Q64 324 95.0 380.5Q126 437 180.5 468.5Q235 500 305 500Q373 500 425.5 471.5Q478 443 508.0 389.5Q538 336 538 262V230H124Q127 139 179.5 89.5Q232 40 312 40Q380 40 417.5 71.0Q455 102 475 147L529 123Q514 90 487.5 58.5Q461 27 419.0 6.5Q377 -14 312 -14ZM125 282H477Q473 361 426.0 403.5Q379 446 305 446Q232 446 184.0 403.5Q136 361 125 282Z"/>
    <path fill="#E1E7EF" transform="translate(363.71,193.65) scale(0.027000,-0.027000)" d="M312 -14Q237 -14 181.5 17.5Q126 49 95.0 106.0Q64 163 64 237V249Q64 324 95.0 380.5Q126 437 180.5 468.5Q235 500 305 500Q373 500 425.5 471.5Q478 443 508.0 389.5Q538 336 538 262V230H124Q127 139 179.5 89.5Q232 40 312 40Q380 40 417.5 71.0Q455 102 475 147L529 123Q514 90 487.5 58.5Q461 27 419.0 6.5Q377 -14 312 -14ZM125 282H477Q473 361 426.0 403.5Q379 446 305 446Q232 446 184.0 403.5Q136 361 125 282Z"/>
    <path fill="#E1E7EF" transform="translate(381.61,193.65) scale(0.027000,-0.027000)" d="M88 0V486H146V425H158Q172 458 199.5 473.0Q227 488 276 488H333V432H269Q214 432 181.0 401.0Q148 370 148 304V0Z"/>
    <path fill="#E1E7EF" transform="translate(393.33,193.65) scale(0.027000,-0.027000)" d="M88 0V486H148V0ZM118 570Q96 570 81.0 585.0Q66 600 66 622Q66 645 81.0 659.5Q96 674 118 674Q141 674 155.5 659.5Q170 645 170 622Q170 600 155.5 585.0Q141 570 118 570Z"/>
    <path fill="#E1E7EF" transform="translate(401.46,193.65) scale(0.027000,-0.027000)" d="M88 0V486H146V396H158Q176 435 217.0 465.5Q258 496 336 496Q389 496 433.0 474.0Q477 452 503.5 407.5Q530 363 530 296V0H470V292Q470 372 430.0 407.0Q390 442 323 442Q248 442 198.0 392.5Q148 343 148 243V0Z"/>
    <path fill="#E1E7EF" transform="translate(419.74,193.65) scale(0.027000,-0.027000)" d="M64 241V253Q64 330 95.5 385.0Q127 440 180.0 470.0Q233 500 298 500Q378 500 422.5 468.5Q467 437 488 397H500V486H556V-124Q556 -160 537.0 -180.0Q518 -200 479 -200H147V-146H467Q498 -146 498 -116V93H486Q473 69 449.5 46.0Q426 23 389.0 8.5Q352 -6 298 -6Q233 -6 179.5 24.0Q126 54 95.0 109.5Q64 165 64 241ZM312 48Q395 48 446.5 100.0Q498 152 498 243V251Q498 343 446.5 394.5Q395 446 312 446Q230 446 178.0 394.5Q126 343 126 251V243Q126 152 178.0 100.0Q230 48 312 48Z"/>
    <path fill="url(#g-tmr)" transform="translate(446.96,193.65) scale(0.027000,-0.027000)" d="M262 0V642H28V700H560V642H326V0Z"/>
    <path fill="url(#g-tmr)" transform="translate(461.81,193.65) scale(0.027000,-0.027000)" d="M310 -14Q236 -14 180.5 17.5Q125 49 94.5 105.5Q64 162 64 237V249Q64 324 94.5 380.5Q125 437 180.5 468.5Q236 500 310 500Q384 500 439.5 468.5Q495 437 525.5 380.5Q556 324 556 249V237Q556 162 525.5 105.5Q495 49 439.5 17.5Q384 -14 310 -14ZM310 40Q396 40 446.0 94.5Q496 149 496 239V247Q496 337 446.0 391.5Q396 446 310 446Q225 446 174.5 391.5Q124 337 124 247V239Q124 149 174.5 94.5Q225 40 310 40Z"/>
    <path fill="url(#g-tmr)" transform="translate(480.31,193.65) scale(0.027000,-0.027000)" d="M88 0V486H146V422H158Q173 449 206.0 472.5Q239 496 300 496Q359 496 395.5 469.0Q432 442 448 404H460Q477 442 513.0 469.0Q549 496 614 496Q664 496 701.0 475.5Q738 455 759.0 418.5Q780 382 780 333V0H720V327Q720 379 688.5 410.5Q657 442 600 442Q542 442 503.0 404.5Q464 367 464 295V0H404V327Q404 379 372.5 410.5Q341 442 284 442Q226 442 187.0 404.5Q148 367 148 295V0Z"/>
    <path fill="url(#g-tmr)" transform="translate(505.34,193.65) scale(0.027000,-0.027000)" d="M310 -14Q236 -14 180.5 17.5Q125 49 94.5 105.5Q64 162 64 237V249Q64 324 94.5 380.5Q125 437 180.5 468.5Q236 500 310 500Q384 500 439.5 468.5Q495 437 525.5 380.5Q556 324 556 249V237Q556 162 525.5 105.5Q495 49 439.5 17.5Q384 -14 310 -14ZM310 40Q396 40 446.0 94.5Q496 149 496 239V247Q496 337 446.0 391.5Q396 446 310 446Q225 446 174.5 391.5Q124 337 124 247V239Q124 149 174.5 94.5Q225 40 310 40Z"/>
    <path fill="url(#g-tmr)" transform="translate(523.83,193.65) scale(0.027000,-0.027000)" d="M88 0V486H146V425H158Q172 458 199.5 473.0Q227 488 276 488H333V432H269Q214 432 181.0 401.0Q148 370 148 304V0Z"/>
    <path fill="url(#g-tmr)" transform="translate(535.55,193.65) scale(0.027000,-0.027000)" d="M88 0V486H146V425H158Q172 458 199.5 473.0Q227 488 276 488H333V432H269Q214 432 181.0 401.0Q148 370 148 304V0Z"/>
    <path fill="url(#g-tmr)" transform="translate(546.79,193.65) scale(0.027000,-0.027000)" d="M310 -14Q236 -14 180.5 17.5Q125 49 94.5 105.5Q64 162 64 237V249Q64 324 94.5 380.5Q125 437 180.5 468.5Q236 500 310 500Q384 500 439.5 468.5Q495 437 525.5 380.5Q556 324 556 249V237Q556 162 525.5 105.5Q495 49 439.5 17.5Q384 -14 310 -14ZM310 40Q396 40 446.0 94.5Q496 149 496 239V247Q496 337 446.0 391.5Q396 446 310 446Q225 446 174.5 391.5Q124 337 124 247V239Q124 149 174.5 94.5Q225 40 310 40Z"/>
    <path fill="url(#g-tmr)" transform="translate(564.93,193.65) scale(0.027000,-0.027000)" d="M168 0 58 486H120L216 40H228L353 486H455L580 40H592L688 486H750L640 0H535L410 446H398L273 0Z"/>
  </g>
</svg>
